<?xml version="1.0" encoding="UTF-8" standalone="no"?><svg xmlns="http://www.w3.org/2000/svg" viewBox="0 0 90 20" height="20mm" width="90mm"><metadata/>
  <defs>
    <style>
      * {
  transition: all 300ms ease;
}

#divisao {
  stroke: orange;
  animation: cutText 400ms ease 1;
  clip-path: inset(100% 100% 0 0 );
}

#blur {
  stroke: black;
  filter: blur(0.4px);
  animation: cutText 400ms ease 1;
  clip-path: inset(100% 100% 0 0 );
  opacity: 0.4
}

@keyframes cutText {
  from {
  clip-path: inset(0 0 90% 90%);
  }
  to {
  clip-path: inset(90% 90% 0 0 );
    
  }
}

#blue {
  fill: black;
  animation: splitUp 400ms ease 1 forwards;
  animation-delay:1000ms;
}
#pink {
  fill: black;  
  animation: splitDown 400ms ease 1 forwards;
  animation-delay:500ms;
}

@keyframes splitDown {
  from {
    transform: translateY(0px);
  }
  
  90%{
    fill:#000;
  }
  to {
    transform: translateY(.4px);
    fill: #efa9b6
    
  }
}
@keyframes splitUp {
  from {
    transform: translateX(0px);
  }
  50%{    
    fill:#000;
  }
  to {
    fill:#50d0fd;
    transform: translateX(-1px);  
  }
  
}
#black 
{
  display: none;
}
    </style>
  </defs>
  <path d="M78.257835 8.9634213l-1.879471.19017v8.4873397h1.879471zm-4.949569.50023l-1.780771.17983c.09735.34782.150515.7365297.153481 1.1709897h-6.397025c.0173-.19039.04909-.37287.09043-.54984l-1.833477.18552c-.10718.51859-.165883 1.07392-.165883 1.6738 0 1.84575.519592 3.27161 1.559079 4.27777 1.03948.9995 2.485823 1.49914 4.338237 1.49914.726305 0 1.419275-.0898 2.078942-.26975.659672-.1799 1.30588-.40319 1.938898-.66973v-2.04897h-.10025c-.326501.29319-.876044.59317-1.648997.89969-.766279.29984-1.529123.44958-2.288749.44958-.573045 0-1.099471-.0799-1.579232-.23978-.473099-.15992-.882888-.40001-1.229381-.71985-.35982-.3265-.642993-.7426-.849561-1.24902-.206561-.51307-.310058-1.11305-.310058-1.79937h8.225854v-1.01958c0-.6509-.0691-1.2390597-.201539-1.7704297zM57.288055 11.081641l-1.878954.18965v6.36964h1.878954zm-8.755536.88418l-1.878957.19017v5.48494h1.878957zm-5.617229.56741l-1.878954.19017v4.91753h1.878954zm-5.517493.55759l-1.878955.18965v4.36046h1.878955zm-7.456393.75292l-1.878955.19017v3.60702h1.878955zm-4.397663 1.02888c-.13993.11328-.329594.24987-.569477.40979-.239878.15326-.496779.29984-.769977.43977-.313177.15993-.666229.28969-1.059368.38964-.393135.0999-.77929.14986-1.159102.14986-1.09279 0-1.942314-.35988-2.548681-1.07952-.06741-.0816-.129821-.16839-.189654-.25786l-2.055169.20722c.243882.51783.551415.96168.925007 1.33015.479761.47976 1.056611.83963 1.72961 1.07952.673.23321 1.412203.34985 2.218468.34985.633021 0 1.229318-.0835 1.789039-.25011.566386-.16658 1.163201-.39986 1.789556-.6997v-2.06861zm-11.006047.5271l-2.088245.21135c-.10242.11928-.226915.22431-.378788.3111-.466432.26654-1.112642.39946-1.938899.39946-.5744954 0-1.1730674-.10242-1.7921394-.29559l-2.376083.23978v.70538c.466437.23322 1.042768.45019 1.729095.65009.692988.19324 1.452673.2899 2.27893.2899 1.4592754 0 2.6087864-.32677 3.4483684-.97978.557709-.43036.927605-.94216 1.117761-1.53169z" style="line-height:1.25;white-space:pre" font-weight="400" font-size="10.5833" font-family="sans-serif" fill="#efa9b6"
        id="pink"/>
  <path d="M28.062449 2.0889013V14.033911l1.878955-.19017V9.3050013c.513077-.39313 1.049483-.71624 1.609204-.96945.559723-.2532 1.096129-.37982 1.609204-.37982.499753 0 .906388.0699 1.219564.20981.313178.13326.553271.34025.719853.62011.159918.25321.269723.60626.329697 1.05937.05997.4464397.08992.9261097.08992 1.4391897v1.99626l1.878955-.18965v-2.69596c0-1.3659897-.316275-2.4125197-.949296-3.1388297-.633023-.72631-1.552426-1.08934-2.758492-1.08934-.65967 0-1.302726.13659-1.92908.4098-.626355.2732-1.233154.65303-1.819529 1.13946v-5.62705zm48.315914 0v7.06469l1.879471-.19017v-6.87452zm-35.461919.56948v1.94923h2.118733v-1.94923zm27.886155 3.50831c-1.625862 0-2.938761.53641-3.938262 1.6092-.666546.72023-1.103842 1.6146-1.322917 2.6742597l1.832962-.185c.149704-.6408397.454552-1.1950697.919324-1.6598497.599707-.59303 1.402472-.88935 2.40864-.88935.9995 0 1.742376.27004 2.228805.80977.275764.30189.472667.67622.596344 1.11776l1.780254-.17983c-.197022-.79048-.537202-1.45167-1.027326-1.97766-.812927-.87957-1.971906-1.3193-3.477824-1.3193zm-58.281198.0403c-.7129754 0-1.3591884.093-1.9388984.27957-.573048.17991-1.046404.42631-1.419551.73949-.386477.31984-.676478.68339-.869714 1.08985-.186574.40646-.27957.83938-.27957 1.29915 0 .7329697.203317 1.3528997.60978 1.8593197.413129.49975 1.10925.87907 2.088761 1.13895.353158.0933.742985.17997 1.16944.25993.4331184.08.7830134.15039 1.0495474.21032.719642.15993 1.206137.35274 1.459343.57929.253207.22656.37982.55965.37982.99943 0 .38646-.108754.70157-.32091.94877l2.088244-.21135c.09835-.30502.151413-.6296.151413-.9772 0-.81293-.236418-1.46596-.709517-1.95906-.473099-.48642-1.1461-.82949-2.018998-1.02939-.286525-.0666-.646403-.13966-1.079521-.21962-.426455-.08-.812607-.16034-1.1591024-.2403-.626356-.14659-1.079746-.33626-1.359607-.56947-.286525-.23322-.429948-.5799597-.429948-1.0397397 0-.51973.236937-.90905.710034-1.16892.473098-.26653 1.052589-.39997 1.7389134-.39997.659672 0 1.332671.12294 2.018998.36949.686327.23987 1.269483.5367 1.749247.88986h.09973v-2.00918c-.45311-.23322-1.022614-.4297-1.708941-.58963-.679661-.16658-1.352661-.24959-2.018998-.24959zm11.543997.01c-1.645848 0-2.971885.5196-3.97805 1.55908-.999503 1.03949-1.499134 2.4721697-1.499134 4.2979297 0 .97951.133442 1.83587.399975 2.56883.06183.17003.13049.33247.204124.48886l2.055169-.20722c-.472482-.70647-.710033-1.65578-.710033-2.85047 0-1.38598.306295-2.4356697.919324-3.1486497.619691-.71964 1.462908-1.079 2.529044-1.079.579712 0 1.172337.11979 1.778703.35967.613027.23988 1.206172.58294 1.77922 1.02939h.100253v-2.08876c-.51308-.25988-1.079431-.48-1.699122-.65991-.613029-.17991-1.23979-.26975-1.879473-.26975zm18.970937.25993v6.2466497l1.878954-.19017V6.4769213zm5.617226 0v5.6792397l1.878957-.19017V9.7149713c.49975-.40647 1.019344-.73588 1.559078-.98909.539729-.25987 1.099254-.39016 1.678967-.39016.35982 0 .669787.0168.929658.0501.266534.0266.539727.0734.81959.14004h.10025v-1.92908c-.293187-.0467-.513312-.0766-.659908-.0899-.146592-.02-.38301-.03-.709517-.03-.593037 0-1.1762.12661-1.749248.37982-.566383.24655-1.222576.66948-1.96887 1.26918v-1.649zm8.755539 0v4.7945397l1.878954-.18965V9.7149713c.499748-.40647 1.019347-.73588 1.559079-.98909.539734-.25987 1.099772-.39016 1.679485-.39016.35982 0 .669274.0168.929142.0501.266533.0266.539721.0734.819587.14004h.100253v-1.92908c-.293193-.0467-.513321-.0766-.659908-.0899-.1466-.02-.383019-.03-.709517-.03-.59304 0-1.1762.12661-1.749248.37982-.566385.24655-1.222579.66948-1.968873 1.26918v-1.649zM5.9635396 14.862461v1.40353l2.376083-.23978c-.09897-.0309-.197033-.0582-.29714-.0941-.726305-.26654-1.385652-.62326-1.978689-1.0697z" style="line-height:1.25;white-space:pre" font-weight="400" font-size="10.5833" font-family="sans-serif" fill="#50d0fd" id="blue"/>
  
  <path style="line-height:1.25;white-space:pre" d="M28.06236944 2.08876135v15.55253882h1.87947297v-8.3359251c.51307735-.39313801 1.04948037-.71624241 1.60920376-.96944998.55972074-.25320625 1.09612375-.3798218 1.60920375-.3798218.49975028 0 .90586982.06987619 1.21904652.20980637.3131767.1332664.5532702.33973876.71985187.61960045.15991945.25320625.26972683.6062583.32969729 1.05936678.0599731.44644468.089916.92611071.089916 1.43918886v6.35723442h1.87895439v-7.24658604c0-1.36598791-.31627498-2.41200461-.94929589-3.13830967-.63301826-.72630637-1.55242152-1.08985577-2.75848759-1.08985577-.65966974 0-1.3027263.13659617-1.9290797.40979407-.62635606.2731979-1.23263817.65304007-1.8190104 1.13946515V2.08876135h-1.87947297zm48.31642972 0v15.55253882h1.8789544V2.08876135h-1.8789544zm-35.46243445.56999102v1.94871814h2.11873304V2.65875237H40.9163647zm27.8861543 3.50779632c-1.62585927 0-2.9387588.53640407-3.93826201 1.60920401-.99283837 1.07279994-1.48931576 2.5222959-1.48931576 4.34805503 0 1.84574918.51959668 3.27160436 1.55907844 4.2777748 1.03948176.9994974 2.48582389 1.49913339 4.33823793 1.49913339.72630505 0 1.41926996-.08983557 2.07894235-.2697509.65966974-.17990344 1.30588012-.40318584 1.93889839-.66972656v-2.04897061h-.09973469c-.32650377.29318664-.87656193.593172-1.64951302.89968677-.7662836.29985202-1.52912496.44958502-2.288749.44958502-.5730478-2.6e-7-1.09947073-.0798568-1.57923174-.23977864-.47309616-.15992025-.88288547-.39949543-1.22938115-.71933593-.3598201-.3265035-.64299835-.74312091-.8495612-1.24953632-.20656285-.51307787-.31005727-1.1130473-.31005727-1.79937328h8.22636934v-1.0190591c0-1.61919442-.40978931-2.86852885-1.22938116-3.74809169-.81292963-.87956283-1.97242374-1.319816-3.47833945-1.319816zm-58.28119753.04030742c-.71297878 0-1.35918864.09299521-1.93889971.27956959-.57304834.17990926-1.04640379.4268282-1.41955148.7400065-.38647528.31984077-.67596067.68287502-.86919778 1.08933931-.18657305.40646403-.28008606.83937315-.28008606 1.29914543 0 .73296911.20331747 1.352904.60978176 1.85931807.41312808.49975108 1.10924868.8795938 2.0887613 1.13946516.35315763.09328864.74298333.1799746 1.16943768.25993248.43311842.07995867.78301373.14983486 1.04954836.20980638.71964205.15992051 1.20613592.35325473 1.45934243.5798095.2532073.22655397.3798218.55964163.3798218.99942225 0 .5730486-.23326433.99282064-.69969881 1.25935447-.46643342.2665402-1.11264381.39945892-1.93889972.39945892-.66633644 0-1.36297324-.12976357-2.0892783-.38964023-.7263061-.2665341-1.38565305-.62274079-1.9786904-1.06918547h-.10025247v2.10891514c.46643501.23322148 1.04276762.44967075 1.7290936.64957272.69298846.19323605 1.4526744.28990474 2.27893057.28990474 1.45927364 0 2.60878555-.3267731 3.44836825-.97978487.84624597-.65300807 1.26917316-1.48888078 1.26917316-2.50837406 0-.81292805-.2364187-1.46596416-.70951724-1.95905356-.47309748-.48642349-1.14609958-.83001008-2.01899835-1.02991125-.2865247-.06663531-.64640274-.13966613-1.07952062-.2196248-.42645462-.07996211-.81260764-.15982077-1.15910227-.23977864-.62635526-.14659398-1.07974657-.33677384-1.35960695-.56999108-.28652416-.2332175-.42943118-.57944172-.42943118-1.0392132 0-.51974168.23642003-.90956738.70951725-1.16943768.4730988-.26653384 1.05258762-.39997539 1.73891202-.39997539.65967345 0 1.33267369.12345935 2.01899835.37000312.68632598.23987998 1.26948775.53619267 1.74924718.88935136h.09973548V7.04659809c-.45310875-.23321724-1.0226151-.4302244-1.70893976-.59014465-.67966193-.16658432-1.3526627-.24959733-2.01899809-.24959733zm11.54451496.00981868c-1.6458488 0-2.97188648.51959589-3.9780519 1.55907791-.9995027 1.03948335-1.49964985 2.47217006-1.49965012 4.29792866 2.7e-7.97951288.13344181 1.835867.39997565 2.56883558.2665341.73296938.64322218 1.33925176 1.12964673 1.8190104.47976154.47976207 1.05609548.8396327 1.7290936 1.07952062.67299866.23320877 1.41271994.34984954 2.21898604.34984954.63301853 0 1.22931739-.08301382 1.78903787-.24959733.56638612-.16658273 1.16268419-.39985209 1.78903813-.69969882v-2.0691242h-.10025221c-.13993072.11327713-.32959437.2498741-.56947435.40979408-.23988077.15325645-.49626413.29983509-.76946203.43976633-.31317723.15992607-.66674629.28969573-1.05988378.38964023-.39313775.09995747-.77929077.14986185-1.15910226.14986185-1.09279 0-1.94231628-.35936131-2.54868148-1.07900416-.5997014-.72630584-.89968677-1.76285734-.89968677-3.10885412 0-1.38597665.30629515-2.43514824.91932362-3.14812809.619692-.71964125 1.46290875-1.07952062 2.52904463-1.07952062.57971213 0 1.17285424.11978799 1.77921944.35966796.6130274.2398813 1.20565623.58294984 1.77870298 1.02939452h.1002522v-2.0887613c-.51307787-.25987163-1.07942986-.47999887-1.69912106-.65990813-.61302873-.17991058-1.23927366-.2697509-1.87895493-.2697509zm18.97041892.25993249v11.16469289h1.8789544V6.47660727h-1.8789544zm5.6172258 0v11.16469289h1.87895704V9.71516915c.49975029-.40646429 1.01934432-.736396 1.55907844-.98960357.53972883-.25987163 1.09976972-.3896405 1.67948237-.3896405.35982275 0 .66927148.01629014.92914258.04960938.2665333.02665254.53972618.07340468.8195892.14004317h.10025062V6.5964966c-.29318744-.04665213-.51331283-.07659714-.65990787-.08991706-.1465924-.0199861-.38301083-.02997226-.70951724-.02997226-.59303708 0-1.1761999.12661397-1.7492477.37982154-.56638296.24654404-1.22257608.66947202-1.9688704 1.26917342V6.47660728h-1.87895704zm8.75553864 0v11.16469289h1.8789544V9.71516915c.49975293-.40646429 1.01934696-.736396 1.55907843-.98960357.53973148-.25987163 1.09977501-.3896405 1.67948502-.3896405.3598201 0 .66978741.01629014.92965851.04960938.26653331.02665254.53972618.07340468.8195892.14004317h.09973469V6.5964966c-.29318744-.04665213-.51331548-.07659714-.65990787-.08991706-.14659504-.0199861-.38301347-.02997226-.70951724-.02997226-.59303972 0-1.1761999.12661397-1.7492477.37982154-.5663856.24654404-1.22257608.66947202-1.96887305 1.26917342V6.47660728H55.4090198zM68.70226574 7.7158079c.99950322 0 1.74237912.2700393 2.228805.80976972.49304574.539732.74311932 1.3025731.74982386 2.28874925h-6.39702432c.07995973-.87956256.41671875-1.61561196 1.00975582-2.20865062.59970193-.59303734 1.40247157-.88986835 2.40863964-.88986835z" font-weight="400" font-size="10.5833" font-family="sans-serif" id="black"/>
  <path d="M5.3104786 16.331961L84.689521 8.3138813" fill="none" stroke-width=".264583" id="blur"/>
   <path d="M5.3104786 16.331961L84.689521 8.3138813" fill="none" stroke-width="1" id="divisao"/>
</svg>
